# xmcd
#
# Track frame offsets: 
#        150
#        22182
#        46160
#        80355
#        105890
#        125264
#        143400
#        175610
#        195697
#
# Disc length: 2967 seconds
#
# Revision: 0
# Processed by: cddbd v1.5.2PL0 Copyright (c) Steve Scherf et al.
# Submitted via: ExactAudioCopy v1.0b1
#
DISCID=640b9509
DTITLE=Wolf Mail - Live Blues In Red Square
DYEAR=2008
DGENRE=Blues
TTITLE0=Old Time Used To Be
TTITLE1=Honey Hush
TTITLE2=Coming To You (The Rerurn)
TTITLE3=Nov 27 Blues - The Sky Is Crying
TTITLE4=Love Braking Shuffle
TTITLE5=Blue Rose
TTITLE6=Hello
TTITLE7=So Fine
TTITLE8=We The People
EXTD=
EXTT0=
EXTT1=
EXTT2=
EXTT3=
EXTT4=
EXTT5=
EXTT6=
EXTT7=
EXTT8=
PLAYORDER=
